<svg width="24px" height="24px" viewBox="0 0 24 24" fill="none" xmlns="http://www.w3.org/2000/svg">
<path d="M14.25 13C14.25 14.2426 13.2426 15.25 12 15.25V16.75C14.0711 16.75 15.75 15.0711 15.75 13H14.25ZM12 15.25C10.7574 15.25 9.75 14.2426 9.75 13H8.25C8.25 15.0711 9.92893 16.75 12 16.75V15.25ZM9.75 13C9.75 11.7574 10.7574 10.75 12 10.75V9.25C9.92893 9.25 8.25 10.9289 8.25 13H9.75ZM12 10.75C13.2426 10.75 14.25 11.7574 14.25 13H15.75C15.75 10.9289 14.0711 9.25 12 9.25V10.75ZM20.25 9V17H21.75V9H20.25ZM19 18.25H5V19.75H19V18.25ZM3.75 17V9H2.25V17H3.75ZM5 7.75H7.5V6.25H5V7.75ZM16.5 7.75H19V6.25H16.5V7.75ZM9.5 5.75H14.5V4.25H9.5V5.75ZM14.75 6C14.75 6.9665 15.5335 7.75 16.5 7.75V6.25C16.3619 6.25 16.25 6.13807 16.25 6H14.75ZM7.5 7.75C8.4665 7.75 9.25 6.9665 9.25 6H7.75C7.75 6.13807 7.63807 6.25 7.5 6.25V7.75ZM16.25 6C16.25 5.0335 15.4665 4.25 14.5 4.25V5.75C14.6381 5.75 14.75 5.86193 14.75 6H16.25ZM9.25 6C9.25 5.86193 9.36193 5.75 9.5 5.75V4.25C8.5335 4.25 7.75 5.0335 7.75 6H9.25ZM5 18.25C4.30964 18.25 3.75 17.6904 3.75 17H2.25C2.25 18.5188 3.48122 19.75 5 19.75V18.25ZM20.25 17C20.25 17.6904 19.6904 18.25 19 18.25V19.75C20.5188 19.75 21.75 18.5188 21.75 17H20.25ZM21.75 9C21.75 7.48122 20.5188 6.25 19 6.25V7.75C19.6904 7.75 20.25 8.30964 20.25 9H21.75ZM3.75 9C3.75 8.30964 4.30964 7.75 5 7.75V6.25C3.48122 6.25 2.25 7.48122 2.25 9H3.75Z" fill="#33D2A4"/>
</svg>
