<svg width="100%" height="100%" viewBox="0 0 15 15" fill="none" xmlns="http://www.w3.org/2000/svg" aria-hidden="true">
<desc>댓글</desc>
<path d="M3.08 14.08H2.2L2.728 13.376C3.08 12.892 3.3 12.276 3.432 11.528C1.232 10.516 0 8.624 0 6.16C0 2.376 2.86 0 7.48 0C12.1 0 14.96 2.376 14.96 6.16C14.96 10.032 12.144 12.32 7.48 12.32H7.172C6.468 13.156 5.236 14.08 3.08 14.08ZM7.48 0.88C3.344 0.88 0.88 2.86 0.88 6.16C0.88 8.976 2.596 10.296 4.048 10.868L4.356 11L4.312 11.352C4.224 12.056 4.092 12.672 3.828 13.2C5.28 13.024 6.116 12.276 6.6 11.66L6.732 11.484H7.48C13.42 11.484 14.08 7.788 14.08 6.204C14.08 2.86 11.616 0.88 7.48 0.88Z" fill="#808080"/>
</svg>
