<svg width="16" height="16" viewBox="0 0 16 16" fill="none" xmlns="http://www.w3.org/2000/svg">
<path d="M6.58325 12.7666C7.96118 12.7666 9.2478 12.3184 10.2937 11.5713L14.2283 15.5059C14.4109 15.6885 14.6516 15.7798 14.9006 15.7798C15.4402 15.7798 15.8303 15.3647 15.8303 14.8335C15.8303 14.5845 15.7473 14.3521 15.5647 14.1694L11.655 10.2515C12.4768 9.17236 12.9666 7.83594 12.9666 6.3833C12.9666 2.87207 10.0945 0 6.58325 0C3.06372 0 0.199951 2.87207 0.199951 6.3833C0.199951 9.89453 3.06372 12.7666 6.58325 12.7666ZM6.58325 11.3887C3.83569 11.3887 1.57788 9.12256 1.57788 6.3833C1.57788 3.64404 3.83569 1.37793 6.58325 1.37793C9.32251 1.37793 11.5886 3.64404 11.5886 6.3833C11.5886 9.12256 9.32251 11.3887 6.58325 11.3887Z" fill="#757575"/>
</svg>
